# xmcd
#
# Track frame offsets: 
#        150
#        17505
#        40974
#        57547
#        70149
#        82434
#        98972
#        114587
#        127635
#        139720
#        157959
#        168174
#        190019
#        206285
#        220664
#
# Disc length: 3151 seconds
#
# Revision: 1
# Processed by: cddbd v1.5.2PL0 Copyright (c) Steve Scherf et al.
# Submitted via: ExactAudioCopy v0.90b4
#
DISCID=c70c4d0f
DTITLE=Various Artist - 70s Soul Sessions [CD1]
DYEAR=2004
DGENRE=Soul
TTITLE0=Bobby Womack - Across 110Th Street
TTITLE1=Gil Scott-Heron - The Bottle
TTITLE2=Billy Paul - Me and Mrs. Jones
TTITLE3=Curtis Mayfield - So In Love
TTITLE4=Betty Wright - Clean Up Woman
TTITLE5=The Isley Brothers - Love The One You're With
TTITLE6=Ike and Tina Turner - Come Together
TTITLE7=Freda Payne - Band Of Gold
TTITLE8=Chairmen Of The Board - Give Me Just A Little More Time
TTITLE9=The Skullsnaps - I'm Your Pimp
TTITLE10=Ann Sexton - You've Been Gone Too Long
TTITLE11=The Staple Singers - Let's Do It Again
TTITLE12=Isaac Hayes - Never Can Say Goodbye
TTITLE13=Millie Jackson - Hurts So Good
TTITLE14=Honey Cone - One Monkey Don't Stop No Show
EXTD=2 Cd Compilation (30 Original 70's Soul Party Grooves)
EXTT0=
EXTT1=
EXTT2=
EXTT3=
EXTT4=
EXTT5=
EXTT6=
EXTT7=
EXTT8=
EXTT9=
EXTT10=
EXTT11=
EXTT12=
EXTT13=
EXTT14=
PLAYORDER=
